<svg version="1.0" xmlns="http://www.w3.org/2000/svg"
 width="420.000000pt" height="420.000000pt" viewBox="0 0 420.000000 420.000000"
 preserveAspectRatio="xMidYMid meet">
<g transform="translate(0.000000,420.000000) scale(0.100000,-0.100000)"
fill="#000000" stroke="none">
<path d="M177 4138 c-57 -12 -83 -34 -107 -90 -23 -55 -22 -97 6 -151 19 -35
3799 -3814 3834 -3832 54 -27 87 -28 144 -2 37 17 60 35 70 56 24 46 30 111
15 149 -9 21 -709 729 -1909 1930 -1042 1043 -1906 1906 -1919 1916 -30 24
-85 34 -134 24z"/>
<path d="M3859 4080 c-42 -22 -1196 -1175 -1217 -1216 -21 -39 -18 -117 5
-156 42 -72 139 -100 216 -63 18 9 230 214 472 456 l440 441 5 -1015 5 -1015
30 -43 c64 -90 207 -88 263 3 20 32 20 54 25 1259 5 1314 6 1272 -45 1324 -49
48 -134 59 -199 25z"/>
<path d="M198 2770 c-20 -11 -45 -35 -57 -53 l-21 -34 0 -1244 0 -1244 26 -39
c58 -85 182 -89 259 -7 l30 32 3 1031 2 1031 450 -449 c295 -295 461 -453 482
-461 50 -18 89 -15 138 10 29 14 51 34 62 57 21 40 23 125 5 157 -22 40 -1151
1174 -1194 1199 -58 35 -136 41 -185 14z"/>
</g>
</svg>
